<mxfile host="app.diagrams.net" modified="2023-10-26T09:02:43.075Z" agent="Mozilla/5.0 (Windows NT 10.0; Win64; x64) AppleWebKit/537.36 (KHTML, like Gecko) Chrome/118.0.0.0 Safari/537.36" etag="mt7bqYkx60rh2BjtMV6l" version="22.0.8" type="github">
  <diagram name="Page-1" id="UvifjhlHHwsSWiapGCi_">
    <mxGraphModel dx="1050" dy="542" grid="1" gridSize="10" guides="1" tooltips="1" connect="1" arrows="1" fold="1" page="1" pageScale="1" pageWidth="850" pageHeight="1100" math="0" shadow="0">
      <root>
        <mxCell id="0" />
        <mxCell id="1" parent="0" />
        <mxCell id="vsftuH3nTyCKxbFopcVm-1" value="" style="whiteSpace=wrap;html=1;aspect=fixed;" vertex="1" parent="1">
          <mxGeometry x="560" y="100" width="330" height="330" as="geometry" />
        </mxCell>
        <mxCell id="vsftuH3nTyCKxbFopcVm-2" value="" style="ellipse;whiteSpace=wrap;html=1;" vertex="1" parent="1">
          <mxGeometry x="200" y="50" width="120" height="80" as="geometry" />
        </mxCell>
        <mxCell id="vsftuH3nTyCKxbFopcVm-3" value="" style="ellipse;whiteSpace=wrap;html=1;" vertex="1" parent="1">
          <mxGeometry x="90" y="220" width="120" height="80" as="geometry" />
        </mxCell>
        <mxCell id="vsftuH3nTyCKxbFopcVm-4" value="" style="shape=dataStorage;whiteSpace=wrap;html=1;fixedSize=1;" vertex="1" parent="1">
          <mxGeometry x="140" y="390" width="100" height="80" as="geometry" />
        </mxCell>
        <mxCell id="vsftuH3nTyCKxbFopcVm-5" value="Horizontal Container" style="swimlane;horizontal=0;whiteSpace=wrap;html=1;direction=west;" vertex="1" parent="1">
          <mxGeometry x="320" y="180" width="200" height="300" as="geometry" />
        </mxCell>
        <mxCell id="vsftuH3nTyCKxbFopcVm-6" value="" style="shape=cylinder3;whiteSpace=wrap;html=1;boundedLbl=1;backgroundOutline=1;size=15;" vertex="1" parent="1">
          <mxGeometry x="490" y="20" width="60" height="80" as="geometry" />
        </mxCell>
      </root>
    </mxGraphModel>
  </diagram>
</mxfile>
